{
    "patcher": {
        "fileversion": 1,
        "appversion": {
            "major": 9,
            "minor": 1,
            "revision": 2,
            "architecture": "x64",
            "modernui": 1
        },
        "classnamespace": "box",
        "rect": [ 1059.0, 100.0, 635.0, 983.0 ],
        "boxes": [
            {
                "box": {
                    "fontname": "Arial",
                    "fontsize": 12.0,
                    "id": "obj-27",
                    "linecount": 2,
                    "maxclass": "comment",
                    "numinlets": 1,
                    "numoutlets": 0,
                    "patching_rect": [ 455.0, 639.0, 204.0, 33.0 ],
                    "presentation_linecount": 2,
                    "text": "-Note: mp3s and Itunes files cant be loaded...could be your problem"
                }
            },
            {
                "box": {
                    "fontname": "Arial",
                    "fontsize": 12.0,
                    "id": "obj-28",
                    "maxclass": "comment",
                    "numinlets": 1,
                    "numoutlets": 0,
                    "patching_rect": [ 208.0, 966.0, 150.0, 20.0 ],
                    "text": "Work from the bottom up"
                }
            },
            {
                "box": {
                    "id": "obj-25",
                    "maxclass": "newobj",
                    "numinlets": 1,
                    "numoutlets": 2,
                    "outlettype": [ "float", "bang" ],
                    "patching_rect": [ 155.48, 471.48, 119.0, 22.0 ],
                    "text": "buffer~ bass bass.aif"
                }
            },
            {
                "box": {
                    "id": "obj-18",
                    "maxclass": "ezdac~",
                    "numinlets": 2,
                    "numoutlets": 0,
                    "patching_rect": [ 112.32, 530.77, 45.0, 45.0 ]
                }
            },
            {
                "box": {
                    "id": "obj-10",
                    "maxclass": "newobj",
                    "numinlets": 2,
                    "numoutlets": 2,
                    "outlettype": [ "", "" ],
                    "patching_rect": [ 105.36, 383.8, 105.0, 22.0 ],
                    "text": "route /player/jump"
                }
            },
            {
                "box": {
                    "id": "obj-1",
                    "maxclass": "button",
                    "numinlets": 1,
                    "numoutlets": 1,
                    "outlettype": [ "bang" ],
                    "parameter_enable": 0,
                    "patching_rect": [ 105.36, 428.22580951452255, 24.0, 24.0 ]
                }
            },
            {
                "box": {
                    "id": "obj-6",
                    "linecount": 2,
                    "maxclass": "message",
                    "numinlets": 2,
                    "numoutlets": 1,
                    "outlettype": [ "" ],
                    "patching_rect": [ 31.0, 367.0, 50.0, 35.0 ],
                    "text": "/player/jump 1"
                }
            },
            {
                "box": {
                    "id": "obj-4",
                    "maxclass": "newobj",
                    "numinlets": 1,
                    "numoutlets": 1,
                    "outlettype": [ "" ],
                    "patching_rect": [ 31.0, 319.0, 97.0, 22.0 ],
                    "text": "udpreceive 4848"
                }
            },
            {
                "box": {
                    "id": "obj-41",
                    "linecount": 3,
                    "maxclass": "comment",
                    "numinlets": 1,
                    "numoutlets": 0,
                    "patching_rect": [ 243.0, 50.0, 150.0, 47.0 ],
                    "presentation": 1,
                    "presentation_linecount": 3,
                    "presentation_rect": [ 243.0, 50.0, 150.0, 47.0 ],
                    "text": "Recieves from an OSCClient in Godot sending to port 4848"
                }
            },
            {
                "box": {
                    "id": "obj-39",
                    "linecount": 2,
                    "maxclass": "comment",
                    "numinlets": 1,
                    "numoutlets": 0,
                    "patching_rect": [ 31.0, 229.0, 153.0, 33.0 ],
                    "presentation": 1,
                    "presentation_linecount": 2,
                    "presentation_rect": [ 31.0, 229.0, 153.0, 33.0 ],
                    "text": "Sends to the port specified on OSCServer in Godot"
                }
            },
            {
                "box": {
                    "id": "obj-37",
                    "linecount": 2,
                    "maxclass": "comment",
                    "numinlets": 1,
                    "numoutlets": 0,
                    "patching_rect": [ 515.0, 104.0, 150.0, 33.0 ],
                    "presentation": 1,
                    "presentation_linecount": 2,
                    "presentation_rect": [ 515.0, 104.0, 150.0, 33.0 ],
                    "text": "Different ways of handling\nincoming messages"
                }
            },
            {
                "box": {
                    "id": "obj-35",
                    "maxclass": "toggle",
                    "numinlets": 1,
                    "numoutlets": 1,
                    "outlettype": [ "int" ],
                    "parameter_enable": 0,
                    "patching_rect": [ 523.0, 198.0, 24.0, 24.0 ],
                    "presentation": 1,
                    "presentation_rect": [ 523.0, 198.0, 24.0, 24.0 ]
                }
            },
            {
                "box": {
                    "id": "obj-34",
                    "maxclass": "newobj",
                    "numinlets": 2,
                    "numoutlets": 2,
                    "outlettype": [ "", "" ],
                    "patching_rect": [ 523.0, 158.0, 105.0, 22.0 ],
                    "presentation": 1,
                    "presentation_rect": [ 523.0, 158.0, 105.0, 22.0 ],
                    "text": "route /synth1/gate"
                }
            },
            {
                "box": {
                    "id": "obj-33",
                    "maxclass": "message",
                    "numinlets": 2,
                    "numoutlets": 1,
                    "outlettype": [ "" ],
                    "patching_rect": [ 320.0, 207.0, 114.0, 22.0 ],
                    "presentation": 1,
                    "presentation_rect": [ 320.0, 207.0, 114.0, 22.0 ],
                    "text": "/player/jump"
                }
            },
            {
                "box": {
                    "id": "obj-31",
                    "maxclass": "newobj",
                    "numinlets": 0,
                    "numoutlets": 1,
                    "outlettype": [ "signal" ],
                    "patcher": {
                        "fileversion": 1,
                        "appversion": {
                            "major": 9,
                            "minor": 1,
                            "revision": 2,
                            "architecture": "x64",
                            "modernui": 1
                        },
                        "classnamespace": "box",
                        "rect": [ 0.0, 0.0, 640.0, 480.0 ],
                        "boxes": [
                            {
                                "box": {
                                    "id": "obj-29",
                                    "maxclass": "newobj",
                                    "numinlets": 2,
                                    "numoutlets": 1,
                                    "outlettype": [ "signal" ],
                                    "patching_rect": [ 58.0, 125.0, 44.0, 22.0 ],
                                    "text": "*~ 220"
                                }
                            },
                            {
                                "box": {
                                    "id": "obj-28",
                                    "maxclass": "newobj",
                                    "numinlets": 2,
                                    "numoutlets": 1,
                                    "outlettype": [ "signal" ],
                                    "patching_rect": [ 103.0, 132.0, 46.0, 22.0 ],
                                    "text": "+~ 220"
                                }
                            },
                            {
                                "box": {
                                    "id": "obj-27",
                                    "maxclass": "newobj",
                                    "numinlets": 2,
                                    "numoutlets": 1,
                                    "outlettype": [ "signal" ],
                                    "patching_rect": [ 50.0, 100.0, 66.0, 22.0 ],
                                    "text": "cycle~ 800"
                                }
                            },
                            {
                                "box": {
                                    "id": "obj-16",
                                    "maxclass": "newobj",
                                    "numinlets": 2,
                                    "numoutlets": 1,
                                    "outlettype": [ "signal" ],
                                    "patching_rect": [ 200.0, 158.0, 40.0, 22.0 ],
                                    "text": "*~ 0.2"
                                }
                            },
                            {
                                "box": {
                                    "id": "obj-14",
                                    "maxclass": "newobj",
                                    "numinlets": 2,
                                    "numoutlets": 1,
                                    "outlettype": [ "signal" ],
                                    "patching_rect": [ 200.0, 131.0, 66.0, 22.0 ],
                                    "text": "cycle~ 220"
                                }
                            },
                            {
                                "box": {
                                    "comment": "",
                                    "id": "obj-30",
                                    "index": 1,
                                    "maxclass": "outlet",
                                    "numinlets": 1,
                                    "numoutlets": 0,
                                    "patching_rect": [ 200.0, 240.0, 30.0, 30.0 ]
                                }
                            }
                        ],
                        "lines": [
                            {
                                "patchline": {
                                    "destination": [ "obj-16", 0 ],
                                    "source": [ "obj-14", 0 ]
                                }
                            },
                            {
                                "patchline": {
                                    "destination": [ "obj-30", 0 ],
                                    "source": [ "obj-16", 0 ]
                                }
                            },
                            {
                                "patchline": {
                                    "destination": [ "obj-29", 0 ],
                                    "source": [ "obj-27", 0 ]
                                }
                            },
                            {
                                "patchline": {
                                    "destination": [ "obj-14", 0 ],
                                    "source": [ "obj-28", 0 ]
                                }
                            },
                            {
                                "patchline": {
                                    "destination": [ "obj-28", 0 ],
                                    "source": [ "obj-29", 0 ]
                                }
                            }
                        ]
                    },
                    "patching_rect": [ 352.0, 271.0, 47.0, 22.0 ],
                    "presentation": 1,
                    "presentation_rect": [ 352.0, 271.0, 47.0, 22.0 ],
                    "text": "p synth"
                }
            },
            {
                "box": {
                    "id": "obj-26",
                    "maxclass": "message",
                    "numinlets": 2,
                    "numoutlets": 1,
                    "outlettype": [ "" ],
                    "patching_rect": [ 523.0, 264.0, 45.0, 22.0 ],
                    "presentation": 1,
                    "presentation_rect": [ 523.0, 264.0, 45.0, 22.0 ],
                    "text": "$1 100"
                }
            },
            {
                "box": {
                    "id": "obj-24",
                    "maxclass": "newobj",
                    "numinlets": 2,
                    "numoutlets": 2,
                    "outlettype": [ "signal", "bang" ],
                    "patching_rect": [ 523.0, 297.0, 34.0, 22.0 ],
                    "presentation": 1,
                    "presentation_rect": [ 523.0, 297.0, 34.0, 22.0 ],
                    "text": "line~"
                }
            },
            {
                "box": {
                    "id": "obj-20",
                    "maxclass": "gain~",
                    "multichannelvariant": 0,
                    "numinlets": 1,
                    "numoutlets": 2,
                    "outlettype": [ "signal", "" ],
                    "parameter_enable": 0,
                    "patching_rect": [ 353.0, 384.0, 172.0, 32.0 ],
                    "presentation": 1,
                    "presentation_rect": [ 353.0, 384.0, 172.0, 32.0 ]
                }
            },
            {
                "box": {
                    "id": "obj-19",
                    "maxclass": "toggle",
                    "numinlets": 1,
                    "numoutlets": 1,
                    "outlettype": [ "int" ],
                    "parameter_enable": 0,
                    "patching_rect": [ 459.0, 206.0, 24.0, 24.0 ],
                    "presentation": 1,
                    "presentation_rect": [ 459.0, 206.0, 24.0, 24.0 ]
                }
            },
            {
                "box": {
                    "id": "obj-17",
                    "maxclass": "newobj",
                    "numinlets": 2,
                    "numoutlets": 1,
                    "outlettype": [ "signal" ],
                    "patching_rect": [ 353.0, 328.0, 29.5, 22.0 ],
                    "presentation": 1,
                    "presentation_rect": [ 353.0, 328.0, 29.5, 22.0 ],
                    "text": "*~"
                }
            },
            {
                "box": {
                    "id": "obj-15",
                    "maxclass": "ezdac~",
                    "numinlets": 2,
                    "numoutlets": 0,
                    "patching_rect": [ 353.0, 475.0, 45.0, 45.0 ],
                    "presentation": 1,
                    "presentation_rect": [ 353.0, 475.0, 45.0, 45.0 ]
                }
            },
            {
                "box": {
                    "id": "obj-12",
                    "maxclass": "newobj",
                    "numinlets": 1,
                    "numoutlets": 2,
                    "outlettype": [ "", "int" ],
                    "patching_rect": [ 415.0, 158.0, 63.0, 22.0 ],
                    "presentation": 1,
                    "presentation_rect": [ 415.0, 158.0, 63.0, 22.0 ],
                    "text": "unpack s i"
                }
            },
            {
                "box": {
                    "id": "obj-11",
                    "maxclass": "message",
                    "numinlets": 2,
                    "numoutlets": 1,
                    "outlettype": [ "" ],
                    "patching_rect": [ 257.0, 158.0, 146.0, 22.0 ],
                    "presentation": 1,
                    "presentation_rect": [ 257.0, 158.0, 146.0, 22.0 ],
                    "text": "/player/jump 1"
                }
            },
            {
                "box": {
                    "format": 6,
                    "id": "obj-8",
                    "maxclass": "flonum",
                    "numinlets": 1,
                    "numoutlets": 2,
                    "outlettype": [ "", "bang" ],
                    "parameter_enable": 0,
                    "patching_rect": [ 105.0, 67.0, 50.0, 22.0 ],
                    "presentation": 1,
                    "presentation_rect": [ 105.0, 67.0, 50.0, 22.0 ]
                }
            },
            {
                "box": {
                    "id": "obj-9",
                    "maxclass": "message",
                    "numinlets": 2,
                    "numoutlets": 1,
                    "outlettype": [ "" ],
                    "patching_rect": [ 105.0, 117.0, 61.0, 22.0 ],
                    "presentation": 1,
                    "presentation_rect": [ 105.0, 117.0, 61.0, 22.0 ],
                    "text": "/cube2 $1"
                }
            },
            {
                "box": {
                    "format": 6,
                    "id": "obj-7",
                    "maxclass": "flonum",
                    "numinlets": 1,
                    "numoutlets": 2,
                    "outlettype": [ "", "bang" ],
                    "parameter_enable": 0,
                    "patching_rect": [ 31.0, 67.0, 50.0, 22.0 ],
                    "presentation": 1,
                    "presentation_rect": [ 31.0, 67.0, 50.0, 22.0 ]
                }
            },
            {
                "box": {
                    "id": "obj-5",
                    "maxclass": "message",
                    "numinlets": 2,
                    "numoutlets": 1,
                    "outlettype": [ "" ],
                    "patching_rect": [ 31.0, 117.0, 61.0, 22.0 ],
                    "presentation": 1,
                    "presentation_rect": [ 31.0, 117.0, 61.0, 22.0 ],
                    "text": "/cube1 $1"
                }
            },
            {
                "box": {
                    "id": "obj-3",
                    "maxclass": "newobj",
                    "numinlets": 1,
                    "numoutlets": 0,
                    "patching_rect": [ 31.0, 196.0, 138.0, 22.0 ],
                    "presentation": 1,
                    "presentation_rect": [ 31.0, 196.0, 138.0, 22.0 ],
                    "text": "udpsend 127.0.0.1 4646"
                }
            },
            {
                "box": {
                    "id": "obj-2",
                    "maxclass": "newobj",
                    "numinlets": 1,
                    "numoutlets": 1,
                    "outlettype": [ "" ],
                    "patching_rect": [ 384.0, 109.0, 97.0, 22.0 ],
                    "presentation": 1,
                    "presentation_rect": [ 384.0, 109.0, 97.0, 22.0 ],
                    "text": "udpreceive 4848"
                }
            }
        ],
        "lines": [
            {
                "patchline": {
                    "destination": [ "obj-1", 0 ],
                    "source": [ "obj-10", 0 ]
                }
            },
            {
                "patchline": {
                    "destination": [ "obj-19", 0 ],
                    "source": [ "obj-12", 1 ]
                }
            },
            {
                "patchline": {
                    "destination": [ "obj-33", 1 ],
                    "source": [ "obj-12", 0 ]
                }
            },
            {
                "patchline": {
                    "destination": [ "obj-20", 0 ],
                    "source": [ "obj-17", 0 ]
                }
            },
            {
                "patchline": {
                    "destination": [ "obj-11", 1 ],
                    "order": 2,
                    "source": [ "obj-2", 0 ]
                }
            },
            {
                "patchline": {
                    "destination": [ "obj-12", 0 ],
                    "order": 1,
                    "source": [ "obj-2", 0 ]
                }
            },
            {
                "patchline": {
                    "destination": [ "obj-34", 0 ],
                    "order": 0,
                    "source": [ "obj-2", 0 ]
                }
            },
            {
                "patchline": {
                    "destination": [ "obj-15", 1 ],
                    "order": 0,
                    "source": [ "obj-20", 0 ]
                }
            },
            {
                "patchline": {
                    "destination": [ "obj-15", 0 ],
                    "order": 1,
                    "source": [ "obj-20", 0 ]
                }
            },
            {
                "patchline": {
                    "destination": [ "obj-17", 1 ],
                    "source": [ "obj-24", 0 ]
                }
            },
            {
                "patchline": {
                    "destination": [ "obj-24", 0 ],
                    "source": [ "obj-26", 0 ]
                }
            },
            {
                "patchline": {
                    "destination": [ "obj-17", 0 ],
                    "source": [ "obj-31", 0 ]
                }
            },
            {
                "patchline": {
                    "destination": [ "obj-35", 0 ],
                    "source": [ "obj-34", 0 ]
                }
            },
            {
                "patchline": {
                    "destination": [ "obj-26", 0 ],
                    "source": [ "obj-35", 0 ]
                }
            },
            {
                "patchline": {
                    "destination": [ "obj-10", 0 ],
                    "order": 0,
                    "source": [ "obj-4", 0 ]
                }
            },
            {
                "patchline": {
                    "destination": [ "obj-6", 1 ],
                    "order": 1,
                    "source": [ "obj-4", 0 ]
                }
            },
            {
                "patchline": {
                    "destination": [ "obj-3", 0 ],
                    "source": [ "obj-5", 0 ]
                }
            },
            {
                "patchline": {
                    "destination": [ "obj-5", 0 ],
                    "source": [ "obj-7", 0 ]
                }
            },
            {
                "patchline": {
                    "destination": [ "obj-9", 0 ],
                    "source": [ "obj-8", 0 ]
                }
            },
            {
                "patchline": {
                    "destination": [ "obj-3", 0 ],
                    "source": [ "obj-9", 0 ]
                }
            }
        ],
        "parameters": {
            "parameterbanks": {
                "0": {
                    "index": 0,
                    "name": "",
                    "parameters": [ "-", "-", "-", "-", "-", "-", "-", "-" ],
                    "buttons": [ "-", "-", "-", "-", "-", "-", "-", "-" ]
                }
            },
            "inherited_shortname": 1
        },
        "autosave": 0
    }
}